<svg id="Layer_1" height="512" viewBox="0 0 512 512" width="512" xmlns="http://www.w3.org/2000/svg" data-name="Layer 1"><path d="m92.918 280.931c43.94 14.5 101.955 22.487 163.356 22.487 61.467 0 119.38-7.887 163.072-22.209 45.759-15 70.961-35.782 70.961-58.519 0-19.289-17.687-33.6-32.524-42.211-19.038-11.047-46.147-20.4-78.455-27.087l-4.682-86.062a33.07 33.07 0 0 0 -40.867-30.33l-47.1 11.5a129.917 129.917 0 0 1 -61.364 0l-47.094-11.5a33.07 33.07 0 0 0 -40.867 30.33l-4.654 85.57c-.281.066-.56.13-.844.2-32.115 6.711-59.134 16.159-78.146 27.326-20.944 12.3-32.015 26.726-32.015 41.713-.002 22.761 25.293 43.634 71.223 58.792zm56.418-212.949a21.072 21.072 0 0 1 26.039-19.325l47.1 11.5a141.921 141.921 0 0 0 67.054 0l47.1-11.5a21.072 21.072 0 0 1 26.039 19.325l6.764 124.324-30.7 9.562a266.353 266.353 0 0 1 -165.524-.019l-30.636-9.543zm-17.315 97.351-1.685 30.986a6 6 0 0 0 4.207 6.055l35.019 10.907a277.583 277.583 0 0 0 86.238 13.771 281.347 281.347 0 0 0 86.562-13.746l35.1-10.932a6 6 0 0 0 4.207-6.055l-1.669-30.526c59.881 12.875 98.3 35.017 98.3 56.9 0 16.882-22.853 34.056-62.7 47.117-42.517 13.936-99.1 21.611-159.334 21.611-60.158 0-116.836-7.771-159.595-21.882-40.029-13.21-62.986-30.485-62.986-47.4.008-21.758 38.515-43.954 98.336-56.806z"/><path d="m345.865 475.956a77.229 77.229 0 1 0 -58.4-127.671c-11.489-8.511-21.342-12.362-31.4-12.362-9.922 0-19.639 3.744-30.923 12.007a77.158 77.158 0 1 0 7.181 9.608c17.749-13.035 30.162-12.909 48.02.392a77.176 77.176 0 0 0 65.53 118.026zm-178.828-12a65.229 65.229 0 1 1 65.229-65.228 65.3 65.3 0 0 1 -65.229 65.228zm178.828-130.456a65.229 65.229 0 1 1 -65.228 65.229 65.3 65.3 0 0 1 65.228-65.229z"/></svg>