<svg id="Layer_1" height="512" viewBox="0 0 512 512" width="512" xmlns="http://www.w3.org/2000/svg" data-name="Layer 1"><path d="m96.679 269.536c42.759 14.111 99.437 21.882 159.6 21.882 60.231 0 116.817-7.675 159.334-21.611 39.846-13.061 62.7-30.235 62.7-47.117 0-21.88-38.423-44.022-98.3-56.9l1.661 30.526a6 6 0 0 1 -4.207 6.055l-35.1 10.932a281.347 281.347 0 0 1 -86.567 13.749 277.583 277.583 0 0 1 -86.236-13.771l-35.019-10.907a6 6 0 0 1 -4.207-6.055l1.685-30.986c-59.823 12.852-98.33 35.048-98.33 56.807 0 16.911 22.957 34.186 62.986 47.396z"/><path d="m338.732 201.868 30.7-9.562-6.768-124.324a21.072 21.072 0 0 0 -26.039-19.325l-47.1 11.5a141.921 141.921 0 0 1 -67.054 0l-47.1-11.5a21.072 21.072 0 0 0 -26.039 19.325l-6.764 124.324 30.636 9.543a266.353 266.353 0 0 0 165.528.019z"/><path d="m292.171 351.954c-13.566-11.087-24.7-16.031-36.114-16.031s-22.549 4.944-36.115 16.031l7.594 9.292c21.858-17.864 35.184-17.864 57.041 0z"/><circle cx="167.037" cy="398.727" r="65.228"/><circle cx="345.865" cy="398.727" r="65.228" transform="matrix(.383 -.924 .924 .383 -154.868 565.679)"/></svg>