<svg id="Layer_1" height="512" viewBox="0 0 512 512" width="512" xmlns="http://www.w3.org/2000/svg" data-name="Layer 1"><path d="m397.18 234.526c0-11.878-20.939-24.592-53.642-32.735l-4.977 4.978.579 10.641a6 6 0 0 1 -4.207 6.055l-18.981 5.912-47.136 47.136c33.827-.951 65.2-5.7 89.413-13.638 24.39-7.995 38.951-18.593 38.951-28.349z"/><path d="m60.583 256a195.356 195.356 0 0 0 42.175 121.056l92.651-92.656c-24.188-3.573-45.138-9.195-61.085-16.446-26.038-11.839-31.5-24.908-31.5-33.786 0-19.8 26.1-36.671 71.651-46.364l2.914-53.552a23.452 23.452 0 0 1 28.979-21.508l30.363 7.413a81.607 81.607 0 0 0 38.546 0l30.363-7.413a23.452 23.452 0 0 1 28.979 21.508l.565 10.377 41.875-41.876a195.352 195.352 0 0 0 -121.059-42.168c-107.753 0-195.417 87.662-195.417 195.415z"/><path d="m177.067 223.465a6 6 0 0 1 -4.207-6.055l.934-17.17c-17.8 4.022-32.679 9.367-43.206 15.55-10.168 5.972-15.768 12.5-15.768 18.382 0 7.458 8.919 15.791 24.471 22.862 16.6 7.546 40.24 13.443 66.79 16.7l34.932-34.934a180.7 180.7 0 0 1 -41.4-8.313z"/><path d="m318.023 126.334a11.433 11.433 0 0 0 -9.542-1.929l-30.362 7.413a93.619 93.619 0 0 1 -44.238 0l-30.362-7.413a11.452 11.452 0 0 0 -14.152 10.5l-4.267 78.495 18.164 5.658a169.128 169.128 0 0 0 49.185 8.311l71.336-71.335-1.149-21.122a11.422 11.422 0 0 0 -4.613-8.578z"/><path d="m238.567 348.011a40.072 40.072 0 0 0 -12.377-28.872l-56.415 56.415a39.905 39.905 0 0 0 68.792-27.543z"/><circle cx="313.933" cy="348.011" r="39.918"/><path d="m353.358 191.971c36.1 10.067 55.822 25.008 55.822 42.555 0 11.075-8.191 26.961-47.214 39.752-28.266 9.265-65.659 14.38-105.334 14.419l-21.96 21.961c.6.578 1.187 1.163 1.755 1.768 13.865-9.513 25.641-9.439 39.541.223a51.9 51.9 0 1 1 -7.112 9.652c-9.3-6.444-16.047-6.53-25.279-.25a51.887 51.887 0 0 1 -82.282 61.984l-25.719 25.719a195.432 195.432 0 0 0 120.424 41.661c107.753 0 195.417-87.664 195.417-195.416a195.407 195.407 0 0 0 -41.664-120.423z"/><path d="m256 26.252c-126.684 0-229.749 103.064-229.749 229.748s103.065 229.748 229.749 229.748 229.749-103.065 229.749-229.748-103.065-229.748-229.749-229.748zm-153.685 365.731c-.082 0-.165 0-.247 0a6 6 0 0 1 -4.331-2.118 207.379 207.379 0 0 1 -49.154-133.865c0-114.37 93.047-207.415 207.417-207.415a207.38 207.38 0 0 1 133.861 49.151 6 6 0 0 1 .365 8.821l-283.668 283.669a6 6 0 0 1 -4.243 1.757zm153.685 71.432a207.454 207.454 0 0 1 -133.231-48.605 6 6 0 0 1 -.383-8.836l98.008-98.009a6.161 6.161 0 0 1 .4-.635 5.979 5.979 0 0 1 1.953-1.716l27.127-27.127.078-.078 57.44-57.44a5.974 5.974 0 0 1 1.842-1.842l96.741-96.741a6 6 0 0 1 8.836.382 207.434 207.434 0 0 1 48.606 133.232c0 114.368-93.047 207.415-207.417 207.415z"/></svg>