<svg id="Layer_1" height="512" viewBox="0 0 512 512" width="512" xmlns="http://www.w3.org/2000/svg" data-name="Layer 1"><path d="m391.979 102.066a6 6 0 0 0 -2.118-4.33 207.38 207.38 0 0 0 -133.861-49.151c-114.37 0-207.417 93.045-207.417 207.415a207.379 207.379 0 0 0 49.154 133.861 6 6 0 0 0 4.331 2.118h.247a6 6 0 0 0 4.243-1.757l283.668-283.665a6.007 6.007 0 0 0 1.753-4.491zm-202.612 32.843a11.452 11.452 0 0 1 14.152-10.5l30.362 7.413a93.619 93.619 0 0 0 44.238 0l30.362-7.413a11.452 11.452 0 0 1 14.152 10.5l1.149 21.122-71.336 71.335a169.128 169.128 0 0 1 -49.185-8.311l-18.161-5.655zm-12.3 88.556 22.549 7.023a180.7 180.7 0 0 0 41.4 8.313l-34.932 34.931c-26.55-3.255-50.193-9.152-66.79-16.7-15.552-7.071-24.471-15.4-24.471-22.862 0-5.881 5.6-12.41 15.768-18.382 10.527-6.183 25.4-11.528 43.206-15.55l-.934 17.17a6 6 0 0 0 4.204 6.057zm158.113-78.832-.565-10.377a23.452 23.452 0 0 0 -28.979-21.508l-30.363 7.413a81.607 81.607 0 0 1 -38.546 0l-30.363-7.413a23.452 23.452 0 0 0 -28.979 21.508l-2.914 53.552c-45.55 9.693-71.651 26.561-71.651 46.364 0 8.878 5.466 21.947 31.5 33.786 15.947 7.251 36.9 12.873 61.085 16.446l-92.651 92.651a195.356 195.356 0 0 1 -42.171-121.055c0-107.753 87.664-195.415 195.417-195.415a195.352 195.352 0 0 1 121.055 42.172z"/><path d="m410.475 120.634a6.018 6.018 0 0 0 -4.5 1.752l-96.741 96.741a5.974 5.974 0 0 0 -1.842 1.842l-57.44 57.44-.078.078-27.127 27.127a5.979 5.979 0 0 0 -1.953 1.716 6.161 6.161 0 0 0 -.4.635l-98.008 98.009a6 6 0 0 0 .383 8.836 207.454 207.454 0 0 0 133.231 48.605c114.37 0 207.417-93.047 207.417-207.416a207.434 207.434 0 0 0 -48.608-133.231 6 6 0 0 0 -4.334-2.134zm-94.523 108.743 18.981-5.912a6 6 0 0 0 4.207-6.055l-.579-10.641 4.977-4.978c32.7 8.143 53.642 20.857 53.642 32.735 0 9.756-14.561 20.354-38.951 28.349-24.209 7.935-55.586 12.687-89.413 13.638zm-77.385 118.634a39.905 39.905 0 0 1 -68.792 27.543l56.415-56.415a40.072 40.072 0 0 1 12.377 28.872zm17.433 103.404a195.432 195.432 0 0 1 -120.424-41.661l25.719-25.719a51.884 51.884 0 0 0 82.282-61.984c9.232-6.28 15.982-6.194 25.279.25a52.057 52.057 0 1 0 7.112-9.652c-13.9-9.662-25.676-9.736-39.541-.223-.568-.6-1.157-1.19-1.755-1.768l21.96-21.961c39.675-.039 77.068-5.154 105.334-14.419 39.023-12.791 47.214-28.677 47.214-39.752 0-17.547-19.725-32.488-55.822-42.555l56.395-56.4a195.407 195.407 0 0 1 41.664 120.429c0 107.751-87.664 195.415-195.417 195.415zm57.933-143.322a39.918 39.918 0 1 1 -39.918 39.918 39.964 39.964 0 0 1 39.918-39.918z"/><path d="m256 14.252c-133.3 0-241.749 108.448-241.749 241.748s108.449 241.748 241.749 241.748 241.749-108.448 241.749-241.748-108.449-241.748-241.749-241.748zm0 471.5c-126.684-.004-229.749-103.069-229.749-229.752s103.065-229.748 229.749-229.748 229.749 103.064 229.749 229.748-103.065 229.748-229.749 229.748z"/></svg>