<?xml version="1.0" encoding="UTF-8" standalone="no"?>
<svg
   xmlns:dc="http://purl.org/dc/elements/1.1/"
   xmlns:cc="http://creativecommons.org/ns#"
   xmlns:rdf="http://www.w3.org/1999/02/22-rdf-syntax-ns#"
   xmlns:svg="http://www.w3.org/2000/svg"
   xmlns="http://www.w3.org/2000/svg"
   xmlns:sodipodi="http://sodipodi.sourceforge.net/DTD/sodipodi-0.dtd"
   xmlns:inkscape="http://www.inkscape.org/namespaces/inkscape"
   viewBox="0 0 48 48"
   width="48px"
   height="48px"
   version="1.1"
   id="svg929"
   sodipodi:docname="openvpn_black.svg"
   inkscape:version="1.0.1 (3bc2e813f5, 2020-09-07)">
  <metadata
     id="metadata935">
    <rdf:RDF>
      <cc:Work
         rdf:about="">
        <dc:format>image/svg+xml</dc:format>
        <dc:type
           rdf:resource="http://purl.org/dc/dcmitype/StillImage" />
        <dc:title></dc:title>
      </cc:Work>
    </rdf:RDF>
  </metadata>
  <defs
     id="defs933" />
  <sodipodi:namedview
     pagecolor="#ffffff"
     bordercolor="#666666"
     borderopacity="1"
     objecttolerance="10"
     gridtolerance="10"
     guidetolerance="10"
     inkscape:pageopacity="0"
     inkscape:pageshadow="2"
     inkscape:window-width="1920"
     inkscape:window-height="1009"
     id="namedview931"
     showgrid="false"
     inkscape:zoom="16.4375"
     inkscape:cx="24"
     inkscape:cy="24"
     inkscape:window-x="0"
     inkscape:window-y="34"
     inkscape:window-maximized="1"
     inkscape:current-layer="svg929" />
  <path
     fill="#ff9100"
     d="M24,4C12.955,4,4,12.954,4,24c0,7.393,4.022,13.833,9.987,17.295l4.506-7.783C15.212,31.608,13,28.066,13,24c0-6.075,4.925-11,11-11s11,4.925,11,11c0,4.066-2.212,7.608-5.493,9.512l4.506,7.783C39.978,37.833,44,31.393,44,24C44,12.954,35.045,4,24,4z"
     id="path925"
     style="fill:#000000" />
  <path
     fill="#1a237e"
     d="M30,24c0-3.314-2.687-6-6-6s-6,2.686-6,6c0,2.556,1.601,4.733,3.852,5.597l-2.56,13.822C20.805,43.785,22.376,44,24,44s3.195-0.215,4.707-0.58l-2.56-13.822C28.399,28.733,30,26.556,30,24z"
     id="path927"
     style="fill:#000000" />
</svg>
